<svg width="49" height="48" viewBox="0 0 49 48" fill="none" xmlns="http://www.w3.org/2000/svg">
<path d="M12.069 21.1865V17.2357C12.069 17.0018 12.069 16.9083 12.3742 16.9083C14.9908 16.9083 17.1176 16.7532 18.1736 17.376C19.2321 17.9963 19.2764 18.8529 19.2936 19.1089C19.3133 19.3649 19.3034 19.7317 18.8111 20.6252C18.3188 21.5188 16.1157 21.536 14.5256 21.536H12.421C12.1625 21.536 12.069 21.4425 12.069 21.1865ZM19.3207 25.3268C19.5641 25.6381 19.7378 25.9981 19.83 26.3824C19.9222 26.7667 19.9308 27.1663 19.8551 27.5542C19.7795 27.9421 19.6215 28.3093 19.3916 28.6308C19.1618 28.9523 18.8657 29.2207 18.5231 29.4178C18.0193 29.6291 17.4792 29.7403 16.933 29.7452H12.3964C12.1625 29.7452 12.069 29.7452 12.069 29.4425V24.7655C12.069 24.5317 12.069 24.4382 12.3742 24.4382H15.3896C17.2604 24.4382 18.4296 24.2757 19.3207 25.3268Z" fill="white"/>
<path d="M35.7859 23.1606C35.6606 22.8648 35.4703 22.601 35.2291 22.3887C34.9879 22.1765 34.702 22.0214 34.3927 21.9348C33.7744 21.7662 33.1274 21.7306 32.4943 21.8303C31.8613 21.93 31.2566 22.1627 30.7201 22.5132C30.1849 23.0529 29.8394 23.7517 29.7354 24.5046C29.7354 24.768 29.7354 24.8172 30.0481 24.8172H35.8819C36.1699 24.8172 36.1699 24.8172 36.1453 24.4554C36.1172 24.0031 35.9963 23.5619 35.7859 23.1606ZM35.7859 23.1606C35.6606 22.8648 35.4679 22.601 35.2267 22.3887C34.9855 22.1765 34.702 22.0214 34.3927 21.9348C33.7744 21.7662 33.1249 21.7306 32.4919 21.8303C31.8588 21.93 31.2566 22.1627 30.7201 22.5132C30.1849 23.0529 29.8369 23.7517 29.733 24.5046C29.733 24.768 29.733 24.8172 30.0456 24.8172H35.8819C36.1699 24.8172 36.1699 24.8172 36.1453 24.4554C36.1172 24.0031 35.9914 23.5619 35.781 23.1606M38.5207 0H9.72067C7.17459 0 4.73279 1.01143 2.93244 2.81177C1.13209 4.61212 0.120667 7.05392 0.120667 9.6V38.4C0.120667 40.9461 1.13209 43.3879 2.93244 45.1882C4.73279 46.9886 7.17459 48 9.72067 48H38.5207C41.0667 48 43.5085 46.9886 45.3089 45.1882C47.1092 43.3879 48.1207 40.9461 48.1207 38.4V9.6C48.1207 7.05392 47.1092 4.61212 45.3089 2.81177C43.5085 1.01143 41.0667 0 38.5207 0ZM29.1127 15.2862C29.1127 15.0966 29.1127 15.0228 29.3293 15.0228H37.1053V17.0412C37.1053 17.0412 37.1127 17.184 36.9847 17.184H29.4499C29.1127 17.184 29.1127 17.184 29.1127 16.8492V15.2862ZM21.9127 32.928C18.9588 34.5354 13.9939 33.888 8.11328 33.888V13.9914H17.4967C19.8967 13.9914 22.7521 14.592 23.5201 17.1348C23.9188 18.2454 23.8946 19.4639 23.4519 20.5578C23.0092 21.6516 22.179 22.544 21.1201 23.0646C22.0962 23.4258 22.9484 24.0592 23.5758 24.8896C24.2033 25.72 24.5796 26.7129 24.6604 27.7505C24.7412 28.7882 24.5231 29.8273 24.0317 30.7449C23.5404 31.6624 22.7965 32.42 21.8881 32.928H21.9127ZM39.7933 27.264H30.1933C29.9299 27.264 29.6887 27.4068 29.7354 27.744C30.0234 29.1594 30.6708 30.6486 32.1379 30.8652C32.9126 31.0945 33.7417 31.0584 34.4935 30.7627C35.2454 30.467 35.877 29.9287 36.2881 29.2332C36.2881 29.2332 36.4087 29.088 36.4801 29.088H39.6013C39.6013 29.088 39.7933 29.088 39.7441 29.2554C39.4172 30.1885 38.9298 31.0573 38.3041 31.8228C37.4696 32.6191 36.463 33.2126 35.3622 33.5571C34.2614 33.9016 33.096 33.988 31.9565 33.8095C30.8169 33.6309 29.7338 33.1923 28.7911 32.5276C27.8485 31.8629 27.0716 30.99 26.5207 29.9766C26.1802 29.3013 25.969 28.5683 25.8979 27.8154C25.4698 25.9239 25.797 23.94 26.8099 22.2863C27.8227 20.6325 29.4412 19.4394 31.3207 18.9612C36.7681 17.7846 40.2241 21.5286 40.2241 26.8086C40.2321 26.8703 40.2259 26.9331 40.2059 26.992C40.1858 27.0509 40.1525 27.1045 40.1085 27.1485C40.0645 27.1925 40.011 27.2258 39.9521 27.2458C39.8931 27.2659 39.8304 27.2721 39.7687 27.264H39.7933ZM34.4173 21.9348C33.7991 21.7667 33.1523 21.7315 32.5194 21.8314C31.8868 21.9298 31.3207 22.0505 30.7447 22.5132C30.1687 22.9735 29.8634 23.7514 29.7601 24.5046C29.7601 24.768 29.7601 24.8172 30.0727 24.8172H35.8819C36.1699 24.8172 36.1699 24.8172 36.1453 24.4554C36.1172 24.0031 35.9963 23.5619 35.7859 23.1606C35.6606 22.8648 35.4703 22.601 35.2291 22.3887C34.9879 22.1765 34.702 22.0214 34.3927 21.9348H34.4173Z" fill="white"/>
</svg>
