<svg width="22" height="17" viewBox="0 0 22 17" fill="none" xmlns="http://www.w3.org/2000/svg">
<path d="M20.3333 0.5H1.66668C1.31305 0.5 0.973916 0.640476 0.723868 0.890524C0.473819 1.14057 0.333344 1.47971 0.333344 1.83333V15.1667C0.333344 15.5203 0.473819 15.8594 0.723868 16.1095C0.973916 16.3595 1.31305 16.5 1.66668 16.5H20.3333C20.687 16.5 21.0261 16.3595 21.2762 16.1095C21.5262 15.8594 21.6667 15.5203 21.6667 15.1667V1.83333C21.6667 1.47971 21.5262 1.14057 21.2762 0.890524C21.0261 0.640476 20.687 0.5 20.3333 0.5ZM19.3067 15.1667H2.77334L6.97595 10.82C7.23218 10.555 7.22489 10.1323 6.95966 9.87633C6.69471 9.62057 6.27263 9.6279 6.01671 9.89268L1.66668 14.3933V2.84667L9.95334 11.0933C10.2032 11.3417 10.5411 11.4811 10.8933 11.4811C11.2456 11.4811 11.5835 11.3417 11.8333 11.0933L20.3333 2.64V14.3067L15.8968 9.87016C15.6372 9.6105 15.2162 9.6105 14.9565 9.87016C14.697 10.1297 14.6968 10.5504 14.9562 10.8102L19.3067 15.1667ZM2.54001 1.83333H19.2533L10.8933 10.1467L2.54001 1.83333Z" fill="#fff"/>
</svg>
