<svg width="50" height="48" viewBox="0 0 50 48" fill="none" xmlns="http://www.w3.org/2000/svg">
<path d="M25.2772 0C22.0473 0 18.8489 0.636191 15.8648 1.87225C12.8807 3.1083 10.1693 4.92002 7.88535 7.20396C3.27274 11.8166 0.681396 18.0726 0.681396 24.5958C0.681396 35.4672 7.74041 44.6907 17.505 47.9619C18.7347 48.1587 19.1283 47.3962 19.1283 46.7321V42.5754C12.3152 44.0512 10.8641 39.2796 10.8641 39.2796C9.73267 36.4264 8.13394 35.664 8.13394 35.664C5.89572 34.139 8.30611 34.1882 8.30611 34.1882C10.7657 34.3604 12.0693 36.7216 12.0693 36.7216C14.2091 40.4602 17.8247 39.3534 19.2267 38.7631C19.448 37.1643 20.0875 36.0821 20.7762 35.4672C15.3159 34.8523 9.58509 32.7371 9.58509 23.3661C9.58509 20.6359 10.5197 18.4469 12.1185 16.7006C11.8725 16.0857 11.0117 13.5277 12.3644 10.2073C12.3644 10.2073 14.4305 9.54319 19.1283 12.7161C21.0714 12.1749 23.1866 11.9044 25.2772 11.9044C27.3679 11.9044 29.4831 12.1749 31.4262 12.7161C36.124 9.54319 38.1901 10.2073 38.1901 10.2073C39.5428 13.5277 38.682 16.0857 38.436 16.7006C40.0348 18.4469 40.9694 20.6359 40.9694 23.3661C40.9694 32.7617 35.214 34.8277 29.7291 35.4426C30.6145 36.2051 31.4262 37.7054 31.4262 39.9928V46.7321C31.4262 47.3962 31.8197 48.1833 33.0741 47.9619C42.8387 44.6661 49.8731 35.4672 49.8731 24.5958C49.8731 21.3659 49.2369 18.1675 48.0008 15.1834C46.7648 12.1993 44.9531 9.48789 42.6691 7.20396C40.3852 4.92002 37.6738 3.1083 34.6897 1.87225C31.7056 0.636191 28.5072 0 25.2772 0Z" fill="white"/>
</svg>
