<svg width="49" height="48" viewBox="0 0 49 48" fill="none" xmlns="http://www.w3.org/2000/svg">
<path d="M14.821 0H34.981C42.661 0 48.901 6.24 48.901 13.92V34.08C48.901 37.7718 47.4344 41.3124 44.8239 43.9229C42.2134 46.5334 38.6728 48 34.981 48H14.821C7.141 48 0.901001 41.76 0.901001 34.08V13.92C0.901001 10.2282 2.36757 6.68758 4.97808 4.07707C7.58858 1.46657 11.1292 0 14.821 0ZM14.341 4.8C12.0495 4.8 9.85191 5.71028 8.2316 7.3306C6.61128 8.95091 5.701 11.1485 5.701 13.44V34.56C5.701 39.336 9.565 43.2 14.341 43.2H35.461C37.7525 43.2 39.9501 42.2897 41.5704 40.6694C43.1907 39.0491 44.101 36.8515 44.101 34.56V13.44C44.101 8.664 40.237 4.8 35.461 4.8H14.341ZM37.501 8.4C38.2967 8.4 39.0597 8.71607 39.6223 9.27868C40.1849 9.84129 40.501 10.6044 40.501 11.4C40.501 12.1957 40.1849 12.9587 39.6223 13.5213C39.0597 14.0839 38.2967 14.4 37.501 14.4C36.7054 14.4 35.9423 14.0839 35.3797 13.5213C34.8171 12.9587 34.501 12.1957 34.501 11.4C34.501 10.6044 34.8171 9.84129 35.3797 9.27868C35.9423 8.71607 36.7054 8.4 37.501 8.4ZM24.901 12C28.0836 12 31.1358 13.2643 33.3863 15.5147C35.6367 17.7652 36.901 20.8174 36.901 24C36.901 27.1826 35.6367 30.2348 33.3863 32.4853C31.1358 34.7357 28.0836 36 24.901 36C21.7184 36 18.6662 34.7357 16.4157 32.4853C14.1653 30.2348 12.901 27.1826 12.901 24C12.901 20.8174 14.1653 17.7652 16.4157 15.5147C18.6662 13.2643 21.7184 12 24.901 12ZM24.901 16.8C22.9914 16.8 21.1601 17.5586 19.8098 18.9088C18.4596 20.2591 17.701 22.0904 17.701 24C17.701 25.9096 18.4596 27.7409 19.8098 29.0912C21.1601 30.4414 22.9914 31.2 24.901 31.2C26.8106 31.2 28.6419 30.4414 29.9922 29.0912C31.3424 27.7409 32.101 25.9096 32.101 24C32.101 22.0904 31.3424 20.2591 29.9922 18.9088C28.6419 17.5586 26.8106 16.8 24.901 16.8Z" fill="white"/>
</svg>
