<svg width="54" height="48" viewBox="0 0 54 48" fill="none" xmlns="http://www.w3.org/2000/svg">
<path d="M7.60889 0.296775C5.28184 1.67886 0.696298 6.94688 0.653442 8.3279V10.6142C0.653442 13.5134 3.36298 16.0612 5.82289 16.0612C8.7767 16.0612 11.2377 13.6131 11.2377 10.7042C11.2377 13.6098 13.614 16.0612 16.5689 16.0612C19.5238 16.0612 21.8187 13.6131 21.8187 10.7042C21.8187 13.6098 24.3461 16.0612 27.2999 16.0612H27.3535C30.3073 16.0612 32.8347 13.6131 32.8347 10.7042C32.8347 13.6098 35.135 16.0612 38.0845 16.0612C41.034 16.0612 43.4157 13.6131 43.4157 10.7042C43.4157 13.6098 45.8799 16.0612 48.8305 16.0612C51.2947 16.0612 54 13.5134 54 10.6142V8.3279C53.9571 6.94581 49.3716 1.67779 47.0445 0.292489C39.8191 0.0428555 34.805 0 27.331 0C19.857 0 9.6681 0.117853 7.60889 0.296775ZM21.7855 14.6952C19.4284 18.8093 13.4394 18.8425 11.0877 14.7219C9.67667 17.2011 6.46251 18.1579 5.08792 17.6854C4.67329 21.987 3.62333 43.0912 6.98749 46.5218C15.5586 48.5221 39.352 48.4632 47.6745 46.5218C51.0655 43.0644 49.9587 21.6656 49.5762 17.6854C48.192 18.1611 44.9821 17.1926 43.5765 14.7219C41.2194 18.8489 35.2357 18.8039 32.8786 14.6962C32.118 16.0344 30.4091 17.7968 27.3331 17.7968C26.2146 17.8319 25.1076 17.5619 24.1308 17.0157C23.1541 16.4694 22.3412 15.6666 21.7855 14.6952ZM17.3307 20.456C19.0952 20.456 20.6616 20.456 22.604 22.5752C25.7451 22.2566 28.9104 22.2566 32.0515 22.5752C33.9972 20.4635 35.5646 20.4635 37.3281 20.4635C42.9347 20.4635 44.3157 28.77 46.3139 35.9397C48.1631 42.5984 45.7224 42.7612 42.6765 42.7677C38.1606 42.5995 35.66 39.3199 35.66 36.0404C31.4548 36.7293 24.7393 36.9822 18.9945 36.0404C18.9945 39.3199 16.4939 42.5995 11.978 42.7677C8.93313 42.7612 6.49251 42.5984 8.34172 35.9397C10.342 28.7614 11.723 20.4635 17.3285 20.4635L17.3307 20.456ZM27.331 25.5837C27.331 25.5837 22.5762 29.9517 21.7223 31.4988L24.8293 31.3735V34.0862C24.8293 34.2523 27.1157 34.1033 27.3289 34.1033C28.577 34.1612 29.8263 34.2105 29.8263 34.0862V31.3777L32.9333 31.5031C32.0762 29.9517 27.3246 25.5847 27.3246 25.5847L27.331 25.5837Z" fill="white"/>
</svg>
