<svg width="18" height="19" viewBox="0 0 18 19" fill="none" xmlns="http://www.w3.org/2000/svg">
<path d="M1.09907 5.56086C1.83044 8.41435 3.31528 11.0188 5.39822 13.1018C7.48117 15.1847 10.0856 16.6696 12.9391 17.4009C15.1347 17.9598 17 16.0719 17 13.8056V12.7802C17 12.2141 16.5396 11.7598 15.9766 11.7034C15.0429 11.6114 14.1263 11.3909 13.2529 11.0481L11.6942 12.6069C9.15627 11.3903 7.1097 9.34373 5.89314 6.80578L7.45186 5.24706C7.10877 4.37372 6.88792 3.45718 6.79555 2.52342C6.74018 1.95941 6.2859 1.5 5.71984 1.5H4.69437C2.42808 1.5 0.540192 3.36533 1.09907 5.56086Z" stroke="#fff" stroke-width="1.2" stroke-linecap="round" stroke-linejoin="round"/>
</svg>
