<svg width="32" height="32" viewBox="0 0 32 32" fill="none" xmlns="http://www.w3.org/2000/svg">
<path d="M16 32C13.8133 32 11.7467 31.5797 9.8 30.7392C7.85333 29.8987 6.1536 28.752 4.7008 27.2992C3.248 25.8464 2.10133 24.1467 1.2608 22.2C0.420267 20.2533 0 18.1867 0 16C0 13.7867 0.420267 11.7136 1.2608 9.7808C2.10133 7.848 3.248 6.15467 4.7008 4.7008C6.1536 3.24693 7.85333 2.10027 9.8 1.2608C11.7467 0.421333 13.8133 0.00106667 16 0C18.2133 0 20.2869 0.420267 22.2208 1.2608C24.1547 2.10133 25.8475 3.248 27.2992 4.7008C28.7509 6.1536 29.8976 7.84693 30.7392 9.7808C31.5808 11.7147 32.0011 13.7877 32 16C32 18.1867 31.5797 20.2533 30.7392 22.2C29.8987 24.1467 28.752 25.8469 27.2992 27.3008C25.8464 28.7547 24.1531 29.9013 22.2192 30.7408C20.2853 31.5803 18.2123 32 16 32ZM16 28.72C16.6933 27.76 17.2933 26.76 17.8 25.72C18.3067 24.68 18.72 23.5733 19.04 22.4H12.96C13.28 23.5733 13.6933 24.68 14.2 25.72C14.7067 26.76 15.3067 27.76 16 28.72ZM11.84 28.08C11.36 27.2 10.9403 26.2864 10.5808 25.3392C10.2213 24.392 9.92107 23.4123 9.68 22.4H4.96C5.73333 23.7333 6.70027 24.8933 7.8608 25.88C9.02133 26.8667 10.3477 27.6 11.84 28.08ZM20.16 28.08C21.6533 27.6 22.9803 26.8667 24.1408 25.88C25.3013 24.8933 26.2677 23.7333 27.04 22.4H22.32C22.08 23.4133 21.7803 24.3936 21.4208 25.3408C21.0613 26.288 20.6411 27.2011 20.16 28.08ZM3.6 19.2H9.04C8.96 18.6667 8.90027 18.1403 8.8608 17.6208C8.82133 17.1013 8.80107 16.5611 8.8 16C8.79893 15.4389 8.8192 14.8992 8.8608 14.3808C8.9024 13.8624 8.96213 13.3355 9.04 12.8H3.6C3.46667 13.3333 3.36693 13.8603 3.3008 14.3808C3.23467 14.9013 3.20107 15.4411 3.2 16C3.19893 16.5589 3.23253 17.0992 3.3008 17.6208C3.36907 18.1424 3.4688 18.6688 3.6 19.2ZM12.24 19.2H19.76C19.84 18.6667 19.9003 18.1403 19.9408 17.6208C19.9813 17.1013 20.0011 16.5611 20 16C19.9989 15.4389 19.9787 14.8992 19.9392 14.3808C19.8997 13.8624 19.84 13.3355 19.76 12.8H12.24C12.16 13.3333 12.1003 13.8603 12.0608 14.3808C12.0213 14.9013 12.0011 15.4411 12 16C11.9989 16.5589 12.0192 17.0992 12.0608 17.6208C12.1024 18.1424 12.1621 18.6688 12.24 19.2ZM22.96 19.2H28.4C28.5333 18.6667 28.6336 18.1403 28.7008 17.6208C28.768 17.1013 28.8011 16.5611 28.8 16C28.7989 15.4389 28.7659 14.8992 28.7008 14.3808C28.6357 13.8624 28.5355 13.3355 28.4 12.8H22.96C23.04 13.3333 23.1003 13.8603 23.1408 14.3808C23.1813 14.9013 23.2011 15.4411 23.2 16C23.1989 16.5589 23.1787 17.0992 23.1392 17.6208C23.0997 18.1424 23.04 18.6688 22.96 19.2ZM22.32 9.6H27.04C26.2667 8.26667 25.3003 7.10667 24.1408 6.12C22.9813 5.13333 21.6544 4.4 20.16 3.92C20.64 4.8 21.0603 5.7136 21.4208 6.6608C21.7813 7.608 22.0811 8.58773 22.32 9.6ZM12.96 9.6H19.04C18.72 8.42667 18.3067 7.32 17.8 6.28C17.2933 5.24 16.6933 4.24 16 3.28C15.3067 4.24 14.7067 5.24 14.2 6.28C13.6933 7.32 13.28 8.42667 12.96 9.6ZM4.96 9.6H9.68C9.92 8.58667 10.2203 7.6064 10.5808 6.6592C10.9413 5.712 11.3611 4.79893 11.84 3.92C10.3467 4.4 9.01973 5.13333 7.8592 6.12C6.69867 7.10667 5.73227 8.26667 4.96 9.6Z" fill="white"/>
</svg>
